# xmcd
#
# Track frame offsets: 
#        150
#        13799
#        26683
#        40575
#        54272
#        68500
#        81848
#        95210
#        107544
#        120715
#        131840
#        144487
#        160194
#        170807
#        185182
#        196490
#        208251
#        224785
#        236213
#        246980
#        261404
#        274320
#        284918
#        297130
#        308788
#
# Disc length: 4273 seconds
#
# Revision: 0
# Processed by: cddbd v1.5.1PL0 Copyright (c) Steve Scherf et al.
# Submitted via: ExactAudioCopy v0.95b3
#
DISCID=9810af19
DTITLE=B.B. King - Shake It Up And Go
DYEAR=2005
DGENRE=Blues
TTITLE0=3 O'Clock Blues
TTITLE1=Please Love Me
TTITLE2=You Know I Love You
TTITLE3=You Upset Me Baby
TTITLE4=Whole Lotta Love
TTITLE5=Woke Up This Morning (my babyshe was gone)
TTITLE6=Story From My Heart And Soul
TTITLE7=Please Hurry Home
TTITLE8=When My Heart Beats Like A Hammer
TTITLE9=Everything I Do Is Wrong
TTITLE10=Gotta Find My Baby
TTITLE11=It's My Own Fault, Darlin'
TTITLE12=That Ain't The Way To Do It
TTITLE13=She Don't Move Me No More
TTITLE14=She's Dynamite
TTITLE15=Shake It Up And Go
TTITLE16=The Other Night Blues
TTITLE17=Pray For You
TTITLE18=Fine Looking Woman
TTITLE19=B B's Boogie
TTITLE20=Mistreated Woman
TTITLE21=Don't You Want A Man Like Me?
TTITLE22=Miss Martha King
TTITLE23=She's A Mean Woman
TTITLE24=Hard Workin' Woman
EXTD=
EXTT0=
EXTT1=
EXTT2=
EXTT3=
EXTT4=
EXTT5=
EXTT6=
EXTT7=
EXTT8=
EXTT9=
EXTT10=
EXTT11=
EXTT12=
EXTT13=
EXTT14=
EXTT15=
EXTT16=
EXTT17=
EXTT18=
EXTT19=
EXTT20=
EXTT21=
EXTT22=
EXTT23=
EXTT24=
PLAYORDER=
